<svg width="1436" height="900" viewBox="0 0 1436 900" fill="none" xmlns="http://www.w3.org/2000/svg">
<g opacity="0.6">
<path d="M372.028 345.223C372.028 345.601 371.649 345.98 371.27 345.98C370.891 345.98 370.512 345.601 370.512 345.223C370.512 344.844 370.891 344.465 371.27 344.465C371.649 344.465 372.028 344.654 372.028 345.223Z" fill="#66686E"/>
<path d="M602.175 342.76C602.175 343.328 601.607 343.897 601.039 343.897C600.471 343.897 599.902 343.328 599.902 342.76C599.902 342.191 600.471 341.623 601.039 341.623C601.607 341.623 602.175 342.002 602.175 342.76Z" fill="#898A92"/>
<path d="M1162.11 327.223C1161.59 327.223 1161.16 326.799 1161.16 326.275C1161.16 325.752 1161.59 325.328 1162.11 325.328C1162.63 325.328 1163.06 325.752 1163.06 326.275C1163.06 326.799 1162.63 327.223 1162.11 327.223Z" fill="#66686E"/>
<path d="M468.632 284.024C468.632 284.971 467.874 285.729 466.927 285.729C465.98 285.729 465.223 284.971 465.223 284.024C465.223 283.076 465.98 282.319 466.927 282.319C467.874 282.319 468.632 283.076 468.632 284.024Z" fill="#42474A"/>
<path d="M912.83 305.055C912.83 305.624 912.262 306.192 911.693 306.192C911.125 306.192 910.557 305.624 910.557 305.055C910.557 304.487 911.125 303.918 911.693 303.918C912.451 303.729 912.83 304.297 912.83 305.055Z" fill="#898A92"/>
<path d="M1430.14 317.56C1430.14 318.318 1429.58 318.886 1428.82 318.886C1428.06 318.886 1427.49 318.318 1427.49 317.56C1427.49 316.802 1428.06 316.234 1428.82 316.234C1429.58 316.234 1430.14 316.802 1430.14 317.56Z" fill="#D4D1DB"/>
<path d="M802.775 275.498C802.148 275.498 801.639 274.989 801.639 274.361C801.639 273.733 802.148 273.224 802.775 273.224C803.403 273.224 803.912 273.733 803.912 274.361C803.912 274.989 803.403 275.498 802.775 275.498Z" fill="#898A92"/>
<path d="M914.345 251.625C913.717 251.625 913.208 251.116 913.208 250.488C913.208 249.86 913.717 249.351 914.345 249.351C914.973 249.351 915.481 249.86 915.481 250.488C915.481 251.116 914.973 251.625 914.345 251.625Z" fill="#D4D1DB"/>
<path d="M1036.71 247.078C1035.88 247.078 1035.2 246.399 1035.2 245.562C1035.2 244.725 1035.88 244.046 1036.71 244.046C1037.55 244.046 1038.23 244.725 1038.23 245.562C1038.23 246.399 1037.55 247.078 1036.71 247.078Z" fill="#66686E"/>
<path d="M598.515 161.031C597.678 161.031 597 160.353 597 159.516C597 158.679 597.678 158 598.515 158C599.352 158 600.031 158.679 600.031 159.516C600.031 160.353 599.352 161.031 598.515 161.031Z" fill="#66686E"/>
<path d="M1164 229.078C1164 229.646 1163.44 230.215 1162.87 230.215C1162.3 230.215 1161.73 229.646 1161.73 229.078C1161.73 228.51 1162.3 227.941 1162.87 227.941C1163.44 227.941 1164 228.51 1164 229.078Z" fill="#42474A"/>
<path d="M1349.64 265.267C1349.12 265.267 1348.69 264.842 1348.69 264.319C1348.69 263.796 1349.12 263.372 1349.64 263.372C1350.16 263.372 1350.59 263.796 1350.59 264.319C1350.59 264.842 1350.16 265.267 1349.64 265.267Z" fill="#898A92"/>
<path d="M1374.26 258.067C1374.26 259.204 1373.32 260.151 1372.18 260.151C1371.04 260.151 1370.1 259.204 1370.1 258.067C1370.1 256.93 1371.04 255.983 1372.18 255.983C1373.32 255.983 1374.26 256.93 1374.26 258.067Z" fill="#AEAEB7"/>
<path d="M867.747 238.93C867.747 239.688 867.179 240.067 866.611 240.067C865.853 240.067 865.474 239.499 865.474 238.93C865.474 238.172 866.042 237.793 866.611 237.793C867.179 237.793 867.747 238.362 867.747 238.93Z" fill="#42474A"/>
<path d="M1426.73 248.783C1426.73 249.351 1426.17 249.92 1425.6 249.92C1425.03 249.92 1424.46 249.351 1424.46 248.783C1424.46 248.214 1425.03 247.646 1425.6 247.646C1426.36 247.646 1426.73 248.214 1426.73 248.783Z" fill="#42474A"/>
<path d="M989.515 148.032C988.678 148.032 988 147.353 988 146.516C988 145.679 988.678 145 989.515 145C990.352 145 991.031 145.679 991.031 146.516C991.031 147.353 990.352 148.032 989.515 148.032Z" fill="#D4D1DB"/>
<path d="M1369.72 182.848C1369.72 183.416 1369.34 183.795 1368.77 183.795C1368.2 183.795 1367.82 183.416 1367.82 182.848C1367.82 182.28 1368.2 181.901 1368.77 181.901C1369.34 181.901 1369.72 182.28 1369.72 182.848Z" fill="#66686E"/>
<path d="M50.0088 107.818C50.0088 108.766 49.2512 109.523 48.3041 109.523C47.357 109.523 46.5993 108.766 46.5993 107.818C46.5993 106.871 47.357 106.113 48.3041 106.113C49.2512 106.113 50.0088 106.871 50.0088 107.818Z" fill="#AEAEB7"/>
<path d="M217.648 106.302C217.648 107.06 216.891 107.818 216.133 107.818C215.375 107.818 214.618 107.06 214.618 106.302C214.618 105.545 215.375 104.787 216.133 104.787C217.08 104.787 217.648 105.355 217.648 106.302Z" fill="#F8F4FF"/>
<path d="M923.439 137.186C922.184 137.186 921.166 136.168 921.166 134.912C921.166 133.657 922.184 132.639 923.439 132.639C924.695 132.639 925.712 133.657 925.712 134.912C925.712 136.168 924.695 137.186 923.439 137.186Z" fill="#898A92"/>
<path d="M3.40967 78.4505C3.40967 79.3979 2.65195 80.1557 1.70486 80.1557C0.75777 80.1557 0.00016737 79.3979 0.00016737 78.4505C0.00016737 77.5032 0.75777 76.7454 1.70486 76.7454C2.65195 76.7454 3.40967 77.5032 3.40967 78.4505Z" fill="#898A92"/>
<path d="M1362.52 51.3567C1362.52 52.6829 1361.38 53.6303 1360.25 53.6303C1358.92 53.6303 1357.97 52.4935 1357.97 51.3567C1357.97 50.0304 1359.11 49.083 1360.25 49.083C1361.38 48.8935 1362.52 50.0304 1362.52 51.3567Z" fill="#66686E"/>
<path d="M698.592 29.9469C698.592 30.7047 698.024 31.2732 697.266 31.2732C696.509 31.2732 695.941 30.7047 695.941 29.9469C695.941 29.189 696.509 28.6206 697.266 28.6206C698.024 28.6206 698.592 29.189 698.592 29.9469Z" fill="#D4D1DB"/>
<path d="M766.597 40.1783C766.597 40.7466 766.218 41.315 765.46 41.315C764.703 41.315 764.324 40.9361 764.324 40.1783C764.324 39.4204 764.703 39.0415 765.46 39.0415C766.218 39.0415 766.597 39.6099 766.597 40.1783Z" fill="#D4D1DB"/>
<path d="M1254.74 46.8098C1254.01 46.8098 1253.41 46.216 1253.41 45.4835C1253.41 44.751 1254.01 44.1572 1254.74 44.1572C1255.47 44.1572 1256.06 44.751 1256.06 45.4835C1256.06 46.216 1255.47 46.8098 1254.74 46.8098Z" fill="#898A92"/>
<path d="M1325.77 10.9997C1325.04 10.9997 1324.45 10.406 1324.45 9.6736C1324.45 8.94118 1325.04 8.34741 1325.77 8.34741C1326.5 8.34741 1327.1 8.94118 1327.1 9.6736C1327.1 10.406 1326.5 10.9997 1325.77 10.9997Z" fill="#898A92"/>
<path d="M736.269 358.409C736.269 358.788 736.648 359.167 737.027 359.167C737.406 359.167 737.784 358.788 737.784 358.409C737.784 358.031 737.406 357.652 737.027 357.652C736.648 357.652 736.269 358.031 736.269 358.409Z" fill="#898A92"/>
<path d="M1385.99 856.901C1385.99 857.849 1386.75 858.606 1387.7 858.606C1388.64 858.606 1389.4 857.849 1389.4 856.901C1389.4 855.954 1388.64 855.196 1387.7 855.196C1386.75 855.196 1385.99 855.954 1385.99 856.901Z" fill="#AEAEB7"/>
<path d="M1218.35 855.386C1218.35 856.144 1219.11 856.901 1219.87 856.901C1220.62 856.901 1221.38 856.144 1221.38 855.386C1221.38 854.628 1220.62 853.87 1219.87 853.87C1218.92 853.87 1218.35 854.438 1218.35 855.386Z" fill="#F8F4FF"/>
<path d="M512.561 886.269C513.816 886.269 514.834 885.251 514.834 883.995C514.834 882.74 513.816 881.722 512.561 881.722C511.305 881.722 510.288 882.74 510.288 883.995C510.288 885.251 511.305 886.269 512.561 886.269Z" fill="#898A92"/>
<path d="M1432.59 827.534C1432.59 828.481 1433.35 829.239 1434.3 829.239C1435.24 829.239 1436 828.481 1436 827.534C1436 826.586 1435.24 825.828 1434.3 825.828C1433.35 825.828 1432.59 826.586 1432.59 827.534Z" fill="#898A92"/>
<path d="M73.48 800.44C73.48 801.766 74.6165 802.714 75.7531 802.714C77.079 802.714 78.0261 801.577 78.0261 800.44C78.0261 799.114 76.8896 798.166 75.7531 798.166C74.6165 797.977 73.48 799.114 73.48 800.44Z" fill="#66686E"/>
<path d="M181.262 795.893C181.994 795.893 182.588 795.299 182.588 794.567C182.588 793.834 181.994 793.24 181.262 793.24C180.529 793.24 179.936 793.834 179.936 794.567C179.936 795.299 180.529 795.893 181.262 795.893Z" fill="#898A92"/>
<path d="M1346.65 586.305C1348.12 586.305 1349.3 585.117 1349.3 583.652C1349.3 582.188 1348.12 581 1346.65 581C1345.19 581 1344 582.188 1344 583.652C1344 585.117 1345.19 586.305 1346.65 586.305Z" fill="#D4D1DB"/>
<path d="M1059.05 738.294C1059.05 739.431 1059.81 740.189 1060.94 740.189C1062.08 740.189 1062.84 739.431 1062.84 738.294C1062.84 737.158 1062.08 736.4 1060.94 736.4C1059.81 736.4 1059.05 737.347 1059.05 738.294Z" fill="#AEAEB7"/>
<path d="M412 107.895C412 109.031 412.758 109.789 413.894 109.789C415.031 109.789 415.788 109.031 415.788 107.895C415.788 106.758 415.031 106 413.894 106C412.758 106 412 106.947 412 107.895Z" fill="#AEAEB7"/>
<path d="M458.008 728.821C458.008 729.2 458.387 729.579 458.766 729.579C459.145 729.579 459.524 729.2 459.524 728.821C459.524 728.442 459.145 728.063 458.766 728.063C458.387 728.063 458.008 728.252 458.008 728.821Z" fill="#66686E"/>
<path d="M64.7665 715.558C65.8127 715.558 66.6608 714.71 66.6608 713.663C66.6608 712.617 65.8127 711.769 64.7665 711.769C63.7204 711.769 62.8723 712.617 62.8723 713.663C62.8723 714.71 63.7204 715.558 64.7665 715.558Z" fill="#42474A"/>
<path d="M1413.84 709.495C1414.67 709.495 1415.35 708.816 1415.35 707.979C1415.35 707.142 1414.67 706.463 1413.84 706.463C1413 706.463 1412.32 707.142 1412.32 707.979C1412.32 708.816 1413 709.495 1413.84 709.495Z" fill="#898A92"/>
<path d="M749.515 93.0315C750.352 93.0315 751.031 92.3529 751.031 91.5157C751.031 90.6786 750.352 90 749.515 90C748.678 90 748 90.6786 748 91.5157C748 92.3529 748.678 93.0315 749.515 93.0315Z" fill="#898A92"/>
<path d="M698.197 676.717C698.824 676.717 699.333 676.208 699.333 675.58C699.333 674.952 698.824 674.443 698.197 674.443C697.569 674.443 697.06 674.952 697.06 675.58C697.06 676.208 697.569 676.717 698.197 676.717Z" fill="#66686E"/>
<path d="M1267.79 616.655C1267.79 617.034 1268.17 617.413 1268.55 617.413C1268.93 617.413 1269.31 617.034 1269.31 616.655C1269.31 616.276 1268.93 615.897 1268.55 615.897C1268.17 615.897 1267.79 616.276 1267.79 616.655Z" fill="#D4D1DB"/>
<path d="M1169.86 624.613C1169.86 625.371 1170.43 625.75 1171 625.75C1171.75 625.75 1172.13 625.181 1172.13 624.613C1172.13 623.855 1171.56 623.476 1171 623.476C1170.43 623.476 1169.86 623.855 1169.86 624.613Z" fill="#AEAEB7"/>
<path d="M991 565.137C991 565.895 991.568 566.274 992.137 566.274C992.894 566.274 993.273 565.705 993.273 565.137C993.273 564.379 992.705 564 992.137 564C991.568 564 991 564.379 991 565.137Z" fill="#AEAEB7"/>
<path d="M481 608.705C481 609.653 481.758 610.41 482.705 610.41C483.652 610.41 484.41 609.653 484.41 608.705C484.41 607.758 483.652 607 482.705 607C481.758 607 481 607.758 481 608.705Z" fill="#D4D1DB"/>
<path d="M664.1 585.014C664.1 585.772 664.669 586.34 665.426 586.34C666.184 586.34 666.752 585.772 666.752 585.014C666.752 584.256 666.184 583.688 665.426 583.688C664.858 583.688 664.1 584.256 664.1 585.014Z" fill="#66686E"/>
<path d="M797.075 505.627C797.703 505.627 798.212 505.118 798.212 504.49C798.212 503.862 797.703 503.353 797.075 503.353C796.448 503.353 795.939 503.862 795.939 504.49C795.939 505.118 796.448 505.627 797.075 505.627Z" fill="#66686E"/>
<path d="M344.734 461.859C344.734 462.617 345.302 463.186 346.06 463.186C346.817 463.186 347.386 462.617 347.386 461.859C347.386 461.101 346.817 460.533 346.06 460.533C345.491 460.533 344.734 461.101 344.734 461.859Z" fill="#AEAEB7"/>
<path d="M568.515 638.031C569.352 638.031 570.031 637.353 570.031 636.516C570.031 635.679 569.352 635 568.515 635C567.678 635 567 635.679 567 636.516C567 637.353 567.678 638.031 568.515 638.031Z" fill="#AEAEB7"/>
<path d="M6.99121 442.723C6.99121 443.291 7.55948 443.86 8.12775 443.86C8.69602 443.86 9.26428 443.291 9.26428 442.723C9.26428 442.155 8.69602 441.586 8.12775 441.586C7.55948 441.586 6.99121 442.155 6.99121 442.723Z" fill="#D4D1DB"/>
<path d="M847.841 385.693C847.841 387.019 848.977 388.156 850.303 388.156C851.629 388.156 852.766 387.019 852.766 385.693C852.766 384.367 851.629 383.23 850.303 383.23C848.977 383.23 847.841 384.367 847.841 385.693Z" fill="#D4D1DB"/>
<path d="M175.958 390.051C175.958 390.809 176.526 391.187 177.094 391.187C177.662 391.187 178.231 390.619 178.231 390.051C178.231 389.482 177.662 388.914 177.094 388.914C176.526 388.914 175.958 389.482 175.958 390.051Z" fill="#D4D1DB"/>
<path d="M67.9851 387.02C68.822 387.02 69.5005 386.341 69.5005 385.504C69.5005 384.667 68.822 383.988 67.9851 383.988C67.1482 383.988 66.4697 384.667 66.4697 385.504C66.4697 386.341 67.1482 387.02 67.9851 387.02Z" fill="#F8F4FF"/>
<path d="M51.3174 412.787C51.3174 413.734 52.0751 414.302 52.8328 414.302C53.7799 414.302 54.3481 413.545 54.3481 412.787C54.3481 412.029 53.5905 411.271 52.8328 411.271C51.8857 411.271 51.3174 412.029 51.3174 412.787Z" fill="#66686E"/>
<path d="M668.457 365.23C668.457 365.988 669.215 366.746 669.973 366.746C670.73 366.746 671.488 365.988 671.488 365.23C671.488 364.472 670.73 363.715 669.973 363.715C669.025 363.715 668.457 364.283 668.457 365.23Z" fill="#AEAEB7"/>
<path d="M1362.5 332.263C1362.5 333.589 1363.45 334.536 1364.78 334.536C1366.1 334.536 1367.05 333.589 1367.05 332.263C1367.05 330.937 1366.1 329.989 1364.78 329.989C1363.64 329.989 1362.5 330.937 1362.5 332.263Z" fill="#AEAEB7"/>
<path d="M1352.84 175.383C1352.84 175.951 1353.22 176.33 1353.79 176.33C1354.36 176.33 1354.74 175.951 1354.74 175.383C1354.74 174.814 1354.36 174.436 1353.79 174.436C1353.41 174.436 1352.84 174.814 1352.84 175.383Z" fill="#42474A"/>
</g>
</svg>
