<svg width="124" height="26" viewBox="0 0 124 26" fill="none" xmlns="http://www.w3.org/2000/svg">
<path d="M35.8225 13.3744H41.5016V10.5348H40.5551V9.58831H39.6086V8.6418H37.7155V9.58831H36.769V10.5348H35.8225V13.3744ZM35.8225 19.0535H33.9295V9.58831H34.876V8.6418H35.8225V7.69528H36.769V6.74876H37.7155V5.80225H39.6086V6.74876H40.5551V7.69528H41.5016V8.6418H42.4481V9.58831H43.3946V19.0535H41.5016V15.2674H35.8225V19.0535ZM47.1807 7.69528V11.4813H51.9133V10.5348H52.8598V8.6418H51.9133V7.69528H47.1807ZM48.1272 13.3744H47.1807V19.0535H45.2877V5.80225H52.8598V6.74876H53.8063V7.69528H54.7528V11.4813H53.8063V12.4279H52.8598V13.3744H50.9668V14.3209H51.9133V15.2674H52.8598V16.2139H53.8063V17.1604H54.7528V19.0535H52.8598V18.107H51.9133V17.1604H50.9668V16.2139H50.0203V15.2674H49.0737V14.3209H48.1272V13.3744ZM58.5389 11.4813H63.2715V10.5348H64.218V8.6418H63.2715V7.69528H58.5389V11.4813ZM56.6459 19.0535V5.80225H64.218V6.74876H65.1645V7.69528H66.1111V11.4813H65.1645V13.3744H66.1111V17.1604H65.1645V18.107H64.218V19.0535H56.6459ZM58.5389 17.1604H63.2715V16.2139H64.218V14.3209H63.2715V13.3744H58.5389V17.1604ZM76.5227 7.69528H77.4693V9.58831H75.5762V8.6418H74.6297V7.69528H70.8436V8.6418H69.8971V10.5348H70.8436V11.4813H75.5762V12.4279H76.5227V13.3744H77.4693V17.1604H76.5227V18.107H75.5762V19.0535H69.8971V18.107H68.9506V17.1604H68.0041V15.2674H69.8971V16.2139H70.8436V17.1604H74.6297V16.2139H75.5762V14.3209H74.6297V13.3744H69.8971V12.4279H68.9506V11.4813H68.0041V7.69528H68.9506V6.74876H69.8971V5.80225H75.5762V6.74876H76.5227V7.69528ZM83.1484 7.69528H79.3623V5.80225H88.8275V7.69528H85.0414V19.0535H83.1484V7.69528ZM92.6135 13.3744H98.2926V10.5348H97.3461V9.58831H96.3996V8.6418H94.5066V9.58831H93.56V10.5348H92.6135V13.3744ZM92.6135 19.0535H90.7205V9.58831H91.667V8.6418H92.6135V7.69528H93.56V6.74876H94.5066V5.80225H96.3996V6.74876H97.3461V7.69528H98.2926V8.6418H99.2391V9.58831H100.186V19.0535H98.2926V15.2674H92.6135V19.0535ZM103.972 13.3744V19.0535H102.079V5.80225H103.972V11.4813H104.918V10.5348H105.865V9.58831H106.811V8.6418H107.758V7.69528H108.704V6.74876H109.651V5.80225H111.544V7.69528H110.597V8.6418H109.651V9.58831H108.704V10.5348H107.758V11.4813H106.811V13.3744H107.758V14.3209H108.704V15.2674H109.651V16.2139H110.597V17.1604H111.544V19.0535H109.651V18.107H108.704V17.1604H107.758V16.2139H106.811V15.2674H105.865V14.3209H104.918V13.3744H103.972ZM122.902 5.80225V7.69528H115.33V11.4813H121.009V13.3744H115.33V17.1604H122.902V19.0535H113.437V5.80225H122.902Z" fill="white"/>
<path d="M5.2072 8.04615C5.2072 4.44803 8.25947 1.20065 12.3565 1.20065C16.4536 1.20065 19.3691 4.15587 19.3691 7.95236C19.3691 11.7489 16.4577 14.9495 12.3565 14.9495L12.3959 25.403C19.1689 25.3158 24.6332 19.6628 24.6332 12.7017C24.6332 5.74071 19.1684 0.0876972 12.3954 0.001063C12.3695 0.001063 12.343 0.000531498 12.3171 0H12.3156C12.2896 0 12.2632 0 12.2372 0.001063C5.46378 0.0876972 0 5.74125 0 12.7017C0.762036 11.9867 4.24744 8.96758 5.2072 8.04615Z" fill="white"/>
<circle cx="12.5013" cy="7.83325" r="3.87561" fill="white"/>
</svg>
